<?xml version="1.0" encoding="utf-8"?>
<!-- Generator: Adobe Illustrator 23.0.6, SVG Export Plug-In . SVG Version: 6.00 Build 0)  -->
<svg version="1.1" id="Layer_1" xmlns="http://www.w3.org/2000/svg" xmlns:xlink="http://www.w3.org/1999/xlink" x="0px" y="0px"
	 viewBox="0 0 1024 768" style="enable-background:new 0 0 1024 768;" xml:space="preserve">
<style type="text/css">
	.st0{fill:#DF1F26;}
	.st1{fill:#F9F9F9;}
	.st2{fill:#FFFFFF;}
	.st3{fill:none;}
	.st4{fill:#F9F7F7;}
	.st5{fill:none;stroke:#DF1F26;stroke-miterlimit:10;}
	.st6{stroke:#D42C27;stroke-miterlimit:10;}
	.st7{fill:#FFFFFF;stroke:#F9F7F7;stroke-miterlimit:10;}
	.st8{fill:none;stroke:#FCFCFC;stroke-miterlimit:10;}
</style>
<g>
	<path class="st0" d="M337.82,220.44c2.99,2.39,5.23,4.19,7.38,5.91c-17.64,39.02-33.13,81.5-33.36,92.98
		c3.16-3.49,5.82-5.85,7.84-8.76c15.26-21.96,30.38-44.05,45.57-66.06c4.93-7.15,9.96-14.23,14.96-21.33c0.35-0.5,0.78-1,1.27-1.32
		c5.74-3.75,12.08-5.12,18.28-7.08c2.58,5.55,0.41,9.51-1.34,12.89c-5.64,10.86-11.89,21.34-17.68,32.11
		c-19.37,35.98-38.68,72.02-57.94,108.07c-1.77,3.32-3.19,6.88-4.58,10.42c-2.15,5.5-5.87,7.38-11.91,6.84
		c0.68-2.58,0.9-4.7,1.75-6.46c7.24-15.08,14-30.5,22.03-45.05c17.15-31.06,34.98-61.66,52.5-92.47c2.1-3.7,4-7.54,6-11.31
		c-0.45-0.47-0.91-0.95-1.36-1.42c-1.48,1.01-3.31,1.69-4.38,3.09c-8.82,11.56-17.77,23.02-26.15,34.95
		c-14.3,20.35-28.15,41.1-42.39,61.51c-2.03,2.92-4.94,5.49-7.93,7.07c-3.84,2.04-6.29-0.24-5.86-4.84
		c0.21-2.21,0.95-4.38,1.58-6.51c4.91-16.52,9.88-33.03,14.78-49.55c0.78-2.63,1.34-5.35,2-8.02c-0.51-0.31-1.01-0.62-1.52-0.93
		c-2.31,3.5-4.73,6.92-6.9,10.52c-9.2,15.28-17.59,31.22-27.62,45.79c-20.33,29.56-38.21,60.84-55.67,92.48
		c-16.37,29.67-32.85,59.28-49.56,88.72c-9.74,17.16-20.07,33.9-30.05,50.89c-7.13,12.12-14.1,24.36-21.19,36.51
		c-1.19,2.04-2.64,3.89-3.98,5.83c-3.86-2.4-3.01-5.01-1.54-7.65c5.49-9.85,10.99-19.69,16.51-29.52
		c10.28-18.3,20.52-36.63,30.91-54.85c3.26-5.71,7.09-11.01,10.42-16.67c23.53-39.93,46.89-79.98,70.56-119.81
		c8.14-13.7,17.19-26.74,25.49-40.34c6.18-10.13,11.73-20.74,17.72-31.02c13.58-23.27,27.25-46.48,40.93-69.69
		C334.47,224.55,335.91,222.98,337.82,220.44z"/>
	<path class="st0" d="M387.87,321.27c-3.06,8.3-5.54,15.67-8.48,22.83c-4.7,11.44-9.86,22.66-14.52,34.11
		c-1.75,4.3-3.92,6.49-9.56,4.57c2.32-6.95,4.61-13.8,7.04-21.07c-5.7-1.41-9.28-0.35-11.87,4.24c-2.05,3.65-4.3,7.19-6.64,10.64
		c-1.76,2.59-3.81,4.95-5.73,7.41c-0.47-0.31-0.94-0.62-1.41-0.93c0.32-1.28,0.37-2.74,1-3.82c10.02-17.32,20.15-34.57,30.16-51.9
		c2.12-3.68,4.8-5.86,8.91-5.82C380.06,321.54,383.36,321.38,387.87,321.27z M373.76,334.81c-6.35,1.53-10.69,8.28-11.22,17.45
		C368.62,351.17,368.62,351.17,373.76,334.81z"/>
	<path class="st0" d="M395.5,369.46c-3.38,5.13-6.51,9.88-9.99,15.16c-3.76-4.51-2.45-7.72-0.79-11.06
		c5.36-10.79,10.7-21.59,15.88-32.48c1.8-3.78,3.31-7.73,4.6-11.73c2.64-8.24,15.18-11.11,20.91-4.57c3.05,3.48,1.43,6.85-0.95,9.79
		c-4.32,5.34-8.23,11.28-13.38,15.58c-9.25,7.73-9.57,16.3-4.81,26.46c1.04,2.22,1.04,4.97,1.78,8.87
		C401.01,381.98,401.37,373.94,395.5,369.46z M404.42,349.6c6.43-5.42,13.57-10.35,17-19.64
		C413.04,330.29,407.14,337.01,404.42,349.6z"/>
	<path class="st0" d="M511.81,328.49c-0.69,2.46-1.09,5.06-2.13,7.34c-2.88,6.29-6.28,12.33-8.99,18.69
		c-1.88,4.41-3.2,9.12-4.34,13.81c-1.02,4.19,0,7.81,5.34,10.17c2.32-2.67,5.22-5.2,7.14-8.37c6.25-10.28,12.1-20.82,18.21-31.2
		c2.02-3.43,4.37-6.65,6.57-9.97c0.64,0.35,1.27,0.7,1.91,1.04c-0.39,1.8-0.46,3.76-1.22,5.36c-3.75,7.91-8.12,15.53-11.45,23.62
		c-4.27,10.33-12.37,16.77-20.47,23.15c-6.03,4.75-10.75,2.7-13.49-4.82c-2.34-6.42-3.07-12.51,0.65-18.93
		c5.27-9.1,9.79-18.68,14.92-27.87c0.96-1.71,3.31-2.58,5.02-3.84C510.26,327.28,511.03,327.88,511.81,328.49z"/>
	<path class="st0" d="M575.41,384.52c1.21-3.41,2.39-6.84,3.82-10.16c2.76-6.44,7.72-8.42,14.89-7.48
		c-0.06,8.07-6.75,13.97-5.03,22.84c0.51,0.18,1.01,0.4,1.5,0.66c9.33-21.43,19.23-40.92,28.16-61.32
		c-10.68-1.24-17.73,0.8-21.45,7.12c-9.15,15.53-17.84,31.35-26.6,47.13c-0.9,1.62-0.93,3.75-1.39,5.78
		C573.56,389.72,574.47,387.16,575.41,384.52z M607.23,336.28c0.03,8.61-3.98,15.25-8.61,21.39c-2.2,2.91-5.62,2.68-9.43,0.01
		C592.83,348.38,600.82,343.11,607.23,336.28z"/>
	<g>
		<path class="st0" d="M537.28,380.21c9.49,0.56,17.3,1.03,27.18,1.62c-9.42,3.88-30.36,5.21-39.27,2.93
			c13.01-16.11,27.43-31,39.36-49.34c-8.06-1.13-14.61-2.05-22.42-3.15c6.89-4.79,21.09-4.89,34.96-0.99
			C561.53,345.73,548.11,361.14,537.28,380.21z"/>
	</g>
	<path class="st0" d="M448.33,327.09c-0.47,2.08-0.54,4.25-1.43,5.95c-8.75,16.74-17.63,33.4-27.55,52.11
		c-0.69-3.78-1.64-5.61-1.13-6.72c7.27-15.94,14.61-31.84,22.22-47.6C442.45,326.65,442.89,326.88,448.33,327.09z"/>
	<path class="st1" d="M373.22,334.75c-5.33,16.29-5.33,16.29-11.65,17.38C362.13,343,366.63,336.27,373.22,334.75z"/>
	<path class="st2" d="M607.23,336.28c0.03,8.61-3.98,15.25-8.61,21.39c-2.2,2.91-5.62,2.68-9.43,0.01
		C592.83,348.38,600.82,343.11,607.23,336.28z"/>
	<path class="st0" d="M454.39,372.27c-3.38,5.13-6.51,9.88-9.99,15.16c-3.76-4.51-2.45-7.72-0.79-11.06
		c5.36-10.79,10.7-21.59,15.88-32.48c1.8-3.78,3.31-7.73,4.6-11.73c2.64-8.24,15.18-11.11,20.91-4.57c3.05,3.48,1.43,6.85-0.95,9.79
		c-4.32,5.34-8.23,11.28-13.38,15.58c-9.25,7.73-9.57,16.3-4.81,26.46c1.04,2.22,1.04,4.97,1.78,8.87
		C459.9,384.79,460.26,376.75,454.39,372.27z M463.3,352.4c6.43-5.42,13.57-10.35,17-19.64C471.93,333.09,466.03,339.81,463.3,352.4
		z"/>
	<ellipse class="st0" cx="130.88" cy="356.5" rx="6.64" ry="6.5"/>
	<path class="st0" d="M118.11,353c0,0-1.14,0-2.55,0c-1.41,0-2.55,0-2.55,0s1.14,0,2.55,0C116.96,353,118.11,353,118.11,353z"/>
	<line class="st3" x1="557.33" y1="447" x2="873.98" y2="445"/>
	<line class="st3" x1="677.87" y1="446" x2="678.89" y2="446"/>
	<line class="st3" x1="585.93" y1="438" x2="884.2" y2="436"/>
	<g>
		<g>
			<path class="st0" d="M590.52,389.84c1.93,0,1.93-3,0-3C588.59,386.84,588.59,389.84,590.52,389.84L590.52,389.84z"/>
		</g>
	</g>
	<g>
		<g>
			<path class="st0" d="M590.52,390.35c1.93,0,1.93-3,0-3C588.59,387.35,588.59,390.35,590.52,390.35L590.52,390.35z"/>
		</g>
	</g>
	<g>
		<g>
			<path class="st4" d="M609.04,437.33c1.93,0,1.93-3,0-3C607.11,434.33,607.1,437.33,609.04,437.33L609.04,437.33z"/>
		</g>
	</g>
	<g>
		<path class="st0" d="M895.3,383.67c-10.14,0.19-20.27,0.45-30.41,0.67c0.39,2.06,0.7,4.19,0.9,6.37
			c6.36-0.06,12.72-0.1,19.08-0.29c6.27-0.18,12.5-1.32,18.75-2.02c0.01-0.96,0.02-1.92,0.02-2.89
			C900.86,384.87,898.06,383.62,895.3,383.67z"/>
		<g>
			<path class="st3" d="M601.11,392.26c4.87-0.02,9.73-0.03,14.6-0.05"/>
			<line class="st5" x1="592.35" y1="390.07" x2="636.27" y2="389.89"/>
			<line class="st6" x1="614.56" y1="389.89" x2="885.76" y2="388.95"/>
		</g>
		<line class="st3" x1="671.66" y1="415.55" x2="969.93" y2="414.79"/>
		<g>
			<g>
				<path class="st0" d="M592.36,391.43c26.07-0.14,52.15-0.29,78.22-0.43c7.31-0.04,14.61-0.08,21.92-0.12c1.93-0.01,1.93-3.01,0-3
					c-26.07,0.14-52.15,0.29-78.22,0.43c-7.31,0.04-14.61,0.08-21.92,0.12C590.43,388.45,590.43,391.45,592.36,391.43L592.36,391.43
					z"/>
			</g>
		</g>
		<g>
			<g>
				<path class="st0" d="M692.25,390.84c8.6-0.15,17.21-0.15,25.82,0c1.93,0.03,1.93-2.97,0-3c-8.6-0.15-17.21-0.15-25.82,0
					C690.32,387.88,690.31,390.88,692.25,390.84L692.25,390.84z"/>
			</g>
		</g>
		<g>
			<g>
				<path class="st0" d="M718.84,390.75c8.69-0.23,17.39-0.24,26.08-0.05c1.93,0.04,1.93-2.96,0-3c-8.69-0.2-17.39-0.18-26.08,0.05
					C716.92,387.81,716.91,390.81,718.84,390.75L718.84,390.75z"/>
			</g>
		</g>
		<g>
			<g>
				<path class="st0" d="M744.66,390.67c1.93,0,1.93-3,0-3C742.73,387.67,742.73,390.67,744.66,390.67L744.66,390.67z"/>
			</g>
		</g>
		<g>
			<g>
				<path class="st0" d="M744.67,390.73c12.68-0.64,25.38-0.86,38.08-0.68c1.93,0.03,1.93-2.97,0-3
					c-12.7-0.18-25.39,0.05-38.08,0.68C742.75,387.83,742.73,390.83,744.67,390.73L744.67,390.73z"/>
			</g>
		</g>
		<g>
			<g>
				<path class="st0" d="M783,390.28c12.52,0.07,25.04,0.15,37.55,0.22c1.93,0.01,1.93-2.99,0-3c-12.52-0.07-25.04-0.15-37.55-0.22
					C781.07,387.27,781.07,390.27,783,390.28L783,390.28z"/>
			</g>
		</g>
		<g>
			<g>
				<path class="st0" d="M819.78,390.43c14.68-0.49,29.38-0.56,44.07-0.23c1.93,0.04,1.93-2.96,0-3
					c-14.69-0.33-29.38-0.26-44.07,0.23C817.86,387.49,817.85,390.49,819.78,390.43L819.78,390.43z"/>
			</g>
		</g>
		<line class="st7" x1="590.05" y1="391.21" x2="925.09" y2="390.61"/>
		<line class="st5" x1="591.58" y1="389.71" x2="866.38" y2="384.86"/>
		<g>
			<g>
				<path class="st0" d="M854.47,389.09c1.93,0,1.93-3,0-3C852.54,386.09,852.53,389.09,854.47,389.09L854.47,389.09z"/>
			</g>
		</g>
		<g>
			<g>
				<path class="st0" d="M865.15,385.17c-2.83-0.24-5.67-0.19-8.49,0.17c-1.42,0.18-2.81,0.44-4.21,0.72
					c-1.25,0.25-2.55,0.49-3.83,0.27c-0.8-0.14-1.62,0.22-1.85,1.05c-0.2,0.72,0.25,1.7,1.05,1.85c2.92,0.52,5.71-0.44,8.59-0.84
					c2.89-0.41,5.83-0.45,8.74-0.2C867.07,388.33,867.06,385.33,865.15,385.17L865.15,385.17z"/>
			</g>
		</g>
		<g>
			<g>
				<path class="st0" d="M851.6,386.26c-2.89,0.07-5.79,0.08-8.68,0.01c-1.94-0.05-1.92,2.91,0,3c3.29,0.16,6.58,0.07,9.85-0.25
					c1.2-0.12,2.1-1.61,1.06-2.56c-1.29-1.18-3.15-0.91-4.76-0.92c-1.84-0.01-3.68-0.03-5.52-0.04c-3.28-0.02-6.89-0.39-9.83,1.36
					c-1.66,0.99-0.15,3.58,1.51,2.59c2.32-1.38,5.38-0.97,7.96-0.95c1.54,0.01,3.08,0.02,4.63,0.03c0.77,0.01,1.54,0.01,2.31,0.02
					c0.36,0,0.71,0,1.07,0.01c0.16,0,0.59,0.1,0.51,0.02c0.35-0.85,0.71-1.71,1.06-2.56c-3.28,0.32-6.57,0.4-9.85,0.25c0,1,0,2,0,3
					c2.89,0.07,5.79,0.06,8.68-0.01C853.53,389.21,853.54,386.21,851.6,386.26L851.6,386.26z"/>
			</g>
		</g>
		<g>
			<g>
				<path class="st0" d="M835.41,386.11c-5.79-0.72-11.6-0.61-17.36,0.22c-0.8,0.12-1.24,1.13-1.05,1.85
					c0.24,0.86,1.04,1.16,1.85,1.05c5.48-0.79,11.07-0.8,16.57-0.11c0.81,0.1,1.5-0.76,1.5-1.5
					C836.91,386.72,836.22,386.22,835.41,386.11L835.41,386.11z"/>
			</g>
		</g>
		<g>
			<g>
				<path class="st0" d="M816.91,385.94c-3.06-0.02-6.12-0.05-9.18-0.07c-2.75-0.02-5.71-0.3-8.21,1.08
					c-1.69,0.93-0.18,3.52,1.51,2.59c1.01-0.56,2.14-0.66,3.27-0.68c1.36-0.03,2.72,0.01,4.08,0.02c2.84,0.02,5.68,0.04,8.53,0.06
					C818.84,388.96,818.85,385.96,816.91,385.94L816.91,385.94z"/>
			</g>
		</g>
		<g>
			<g>
				<path class="st0" d="M798.66,389.11c1.93,0,1.93-3,0-3C796.73,386.11,796.72,389.11,798.66,389.11L798.66,389.11z"/>
			</g>
		</g>
		<g>
			<g>
				<path class="st0" d="M795.01,389.09c1.93,0,1.93-3,0-3C793.07,386.09,793.07,389.09,795.01,389.09L795.01,389.09z"/>
			</g>
		</g>
		<g>
			<g>
				<path class="st0" d="M791.09,389.08c1.93,0,1.93-3,0-3C789.16,386.08,789.16,389.08,791.09,389.08L791.09,389.08z"/>
			</g>
		</g>
		<g>
			<g>
				<path class="st0" d="M787.7,389.06c1.93,0,1.93-3,0-3C785.77,386.06,785.77,389.06,787.7,389.06L787.7,389.06z"/>
			</g>
		</g>
		<g>
			<g>
				<path class="st0" d="M783.53,389.56c1.93,0,1.93-3,0-3C781.6,386.56,781.59,389.56,783.53,389.56L783.53,389.56z"/>
			</g>
		</g>
		<g>
			<g>
				<path class="st0" d="M793.18,389.6c1.93,0,1.93-3,0-3C791.25,386.6,791.24,389.6,793.18,389.6L793.18,389.6z"/>
			</g>
		</g>
		<g>
			<g>
				<path class="st0" d="M793.18,389.6c1.93,0,1.93-3,0-3C791.25,386.6,791.24,389.6,793.18,389.6L793.18,389.6z"/>
			</g>
		</g>
		<g>
			<g>
				<path class="st0" d="M796.83,389.1c1.93,0,1.93-3,0-3C794.9,386.1,794.9,389.1,796.83,389.1L796.83,389.1z"/>
			</g>
		</g>
		<g>
			<g>
				<path class="st0" d="M785.88,389.31c1.93,0,1.93-3,0-3C783.95,386.31,783.94,389.31,785.88,389.31L785.88,389.31z"/>
			</g>
		</g>
		<g>
			<g>
				<path class="st0" d="M790.05,389.33c1.93,0,1.93-3,0-3C788.12,386.33,788.12,389.33,790.05,389.33L790.05,389.33z"/>
			</g>
		</g>
		<line class="st8" x1="734.58" y1="391.31" x2="921.52" y2="389.09"/>
		<line class="st8" x1="778.51" y1="390.49" x2="793.83" y2="390.56"/>
		<line class="st8" x1="870.44" y1="389.88" x2="893.93" y2="389.98"/>
		<line class="st8" x1="884.71" y1="397.94" x2="908.2" y2="398.04"/>
		<line class="st8" x1="876.52" y1="401.9" x2="900.01" y2="402"/>
		<g>
			<g>
				<path class="st0" d="M835.17,388.5c1.93,0,1.93-3,0-3C833.24,385.5,833.24,388.5,835.17,388.5L835.17,388.5z"/>
			</g>
		</g>
		<g>
			<g>
				<path class="st0" d="M853.69,387.94c1.93,0,1.93-3,0-3C851.76,384.94,851.76,387.94,853.69,387.94L853.69,387.94z"/>
			</g>
		</g>
		<g>
			<g>
				<path class="st0" d="M865.42,389.01c1.93,0,1.93-3,0-3C863.49,386.01,863.49,389.01,865.42,389.01L865.42,389.01z"/>
			</g>
		</g>
		<g>
			<g>
				<path class="st0" d="M852.52,387.68c1.93,0,1.93-3,0-3C850.59,384.68,850.58,387.68,852.52,387.68L852.52,387.68z"/>
			</g>
		</g>
		<g>
			<g>
				<path class="st0" d="M817.57,388.55c1.93,0,1.93-3,0-3C815.64,385.55,815.63,388.55,817.57,388.55L817.57,388.55z"/>
			</g>
		</g>
		<g>
			<g>
				<path class="st0" d="M799.96,388.73c1.93,0,1.93-3,0-3C798.03,385.73,798.03,388.73,799.96,388.73L799.96,388.73z"/>
			</g>
		</g>
		<g>
			<g>
				<path class="st0" d="M792.4,388.7c1.93,0,1.93-3,0-3C790.47,385.7,790.47,388.7,792.4,388.7L792.4,388.7z"/>
			</g>
		</g>
		<g>
			<g>
				<path class="st0" d="M784.31,389.18c1.93,0,1.93-3,0-3C782.38,386.18,782.38,389.18,784.31,389.18L784.31,389.18z"/>
			</g>
		</g>
		<g>
			<g>
				<path class="st0" d="M782.62,389.17c1.93,0,1.93-3,0-3C780.69,386.17,780.68,389.17,782.62,389.17L782.62,389.17z"/>
			</g>
		</g>
		<g>
			<g>
				<path class="st0" d="M781.05,389.16c1.93,0,1.93-3,0-3C779.12,386.16,779.12,389.16,781.05,389.16L781.05,389.16z"/>
			</g>
		</g>
		<g>
			<g>
				<path class="st0" d="M778.83,389.28c1.93,0,1.93-3,0-3C776.9,386.28,776.9,389.28,778.83,389.28L778.83,389.28z"/>
			</g>
		</g>
		<g>
			<g>
				<path class="st0" d="M777.27,389.28c1.93,0,1.93-3,0-3C775.34,386.28,775.34,389.28,777.27,389.28L777.27,389.28z"/>
			</g>
		</g>
	</g>
</g>
</svg>
